<svg width="201" height="165" viewBox="0 0 201 165" fill="none" xmlns="http://www.w3.org/2000/svg">
<path d="M201 79.5V1.7C201 0.500005 199.5 1.51992e-06 198.7 0.900001L113.7 107.1C113 107.9 113.6 109.2 114.7 109.2H176.1C177.8 109.2 179.3 108.4 180.3 107.1L199.7 82.9C200.5 82 201 80.8 201 79.5ZM2.19999 83L66 162.8C67 164.1 68.6 164.8 70.3 164.8H131.7C132.8 164.8 133.4 163.6 132.7 162.8L3.19999 1.00001C2.39999 0.100008 0.899994 0.600011 0.899994 1.80001V79.6C0.999994 80.8 1.39999 82 2.19999 83Z" fill="#111111"/>
</svg>
